<?xml version="1.0" encoding="UTF-8" standalone="no"?>
<!DOCTYPE svg PUBLIC "-//W3C//DTD SVG 1.1//EN" "http://www.w3.org/Graphics/SVG/1.1/DTD/svg11.dtd">
<svg width="100%" height="100%" viewBox="0 0 145 52" version="1.1" xmlns="http://www.w3.org/2000/svg" xmlns:xlink="http://www.w3.org/1999/xlink" xml:space="preserve" xmlns:serif="http://www.serif.com/" style="fill-rule:evenodd;clip-rule:evenodd;stroke-linejoin:round;stroke-miterlimit:2;">
    <g>
        <path d="M29.1,38.7L28.9,41.2L25.2,41.2C24.2,41.2 20.6,41.3 18.5,41.4L18.3,39L21,38.4C20.8,37.2 20.5,36 20.3,35L19.6,32.8L11.5,32.8L10.4,36.3C10.2,36.9 10,37.7 10,38.4L12.6,38.8L12.4,41.3L8.4,41.3C7.4,41.3 4.7,41.4 2.9,41.5L2.8,39L5,38.6C5.6,37.4 6.2,36.1 6.6,34.9L14,13.2L17.2,12.7L25.3,35.8C25.7,36.7 26,37.7 26.5,38.4L29.1,38.7ZM18.6,30.3L15.4,19.9L12.2,30.3C12.1,30.3 18.6,30.3 18.6,30.3Z" style="fill-rule:nonzero;"/>
        <path d="M54.6,38.7L54.4,41.2L48.9,41.2C48.3,41.2 45.9,41.3 44.4,41.4L44.2,39L46.6,38.5C46.7,37.3 46.8,35.9 46.8,35.3L46.8,29.4C46.8,26.9 45.9,24.5 43.3,24.5C40.8,24.5 38.9,26.9 38.9,30.6L38.9,34.1C38.9,35.7 39,37.3 39.1,38.6L42,38.8L41.8,41.3L35.9,41.3C35.4,41.3 32.8,41.4 31.3,41.5L31.1,39L33.8,38.5C34,37.3 34.2,35.9 34.2,35.1L34.2,27.7C34.2,27.1 34.1,25.7 33.8,24.6L30.9,24L31.1,21.4L37.1,21.4L37.8,22.1L38.2,24.7C39.7,22.3 41.7,20.8 44.7,20.8C49.4,20.8 51.3,23.7 51.3,28.7L51.3,33.7C51.3,35.3 51.4,37.1 51.7,38.2L54.6,38.7Z" style="fill-rule:nonzero;"/>
        <path d="M77.5,38.7L77.3,41.2L70.8,41.2L70.4,38.1C68.9,40.3 66.8,41.6 64.3,41.6C59.4,41.6 56.6,37.9 56.6,31.5C56.6,24.9 60.1,21 66,21C67.2,21 68.5,21.1 70,21.5L70,17.3C70,16.6 69.8,15.2 69.6,14.1L66.4,13.5L66.6,10.9C67.6,11 69.8,11.3 71.1,11.3L74.1,11.3L74.8,12C74.8,12 74.4,16.7 74.4,18.7L74.4,34.2C74.4,35.8 74.5,37.4 74.8,38.7L77.5,38.7ZM69.9,32.4L69.9,25.2C68.7,24.6 67.4,24.3 66.4,24.3C63.4,24.3 61.9,26.7 61.9,31.3C61.9,35.7 63.3,38 65.8,38C68.2,38 69.7,36 69.9,32.4Z" style="fill-rule:nonzero;"/>
        <path d="M98.2,38.7L98,41.2L91.5,41.2L91.1,38.2C89.9,40.4 87.7,41.6 85.2,41.6C81.6,41.6 79.3,39.5 79.3,36.1C79.3,33.1 81,31.2 84.7,30.6L90.7,29.6L90.7,28.2C90.7,25.2 89.7,23.8 87.3,23.8C86.3,23.8 84.9,24.2 83.9,24.4L83.5,26.4L83.5,28L80.8,28.1L80.3,22C82.7,21.4 85.5,21 87.5,21C92.6,21 95.1,23.5 95.1,28.7L95.1,34C95.1,35.7 95.3,37.4 95.5,38.5L98.2,38.7ZM90.6,34.9L90.6,32.3L86.6,32.9C85.1,33.1 84.4,34 84.4,35.4C84.4,37.1 85.3,38.1 86.9,38.1C88.7,38.1 90.2,36.9 90.6,34.9Z" style="fill-rule:nonzero;"/>
        <path d="M121,38.7L120.8,41.2L114.3,41.2L113.9,38.1C112.5,40.3 110.3,41.6 107.9,41.6C103,41.6 100.2,37.9 100.2,31.5C100.2,24.9 103.7,21 109.6,21C110.8,21 112.1,21.1 113.6,21.5L113.6,17.3C113.6,16.6 113.4,15.2 113.2,14.1L110,13.5L110.2,10.9C111.2,11 113.4,11.3 114.7,11.3L117.7,11.3L118.4,12C118.4,12 118,16.7 118,18.7L118,34.2C118,35.8 118.1,37.4 118.4,38.7L121,38.7ZM113.4,32.4L113.4,25.2C112.2,24.6 110.9,24.3 109.9,24.3C106.9,24.3 105.3,26.7 105.3,31.3C105.3,35.7 106.7,38 109.2,38C111.8,38 113.3,36 113.4,32.4Z" style="fill-rule:nonzero;"/>
        <path d="M141.7,38.7L141.5,41.2L135,41.2L134.6,38.2C133.4,40.4 131.2,41.6 128.7,41.6C125.1,41.6 122.8,39.5 122.8,36.1C122.8,33.1 124.5,31.2 128.2,30.6L134.2,29.6L134.2,28.2C134.2,25.2 133.2,23.8 130.8,23.8C129.8,23.8 128.4,24.2 127.4,24.4L127,26.1L127,27.7L124.3,27.8L123.8,21.6C126.2,21 129,20.6 131,20.6C136.1,20.6 138.6,23.1 138.6,28.3L138.6,33.5C138.6,35.2 138.8,36.9 139,38L141.7,38.7ZM134.2,34.9L134.2,32.3L130.1,32.9C128.6,33.1 127.9,34 127.9,35.4C127.9,37.1 128.8,38.1 130.4,38.1C132.2,38.1 133.7,36.9 134.2,34.9Z" style="fill-rule:nonzero;"/>
    </g>
</svg>
